{"glyphs":{":":{"x_min":0,"x_max":247,"ha":247,"o":"m 225 471 q 238 445 238 419 q 238 388 220 364 q 203 340 174 332 q 111 314 90 314 q 21 314 17 405 q 14 486 73 510 q 98 521 133 519 q 140 520 148 520 q 200 520 225 471 z m 230 168 q 240 148 240 125 q 240 87 217 54 q 194 21 164 12 q 134 3 112 3 q 32 3 28 116 q 25 197 88 221 q 114 230 151 228 q 166 227 179 221 q 211 207 230 168 z"},"$":{"x_min":0,"x_max":596,"ha":596,"o":"m 605 474 l 376 399 q 378 405 378 412 q 378 457 329 470 q 321 472 314 472 q 283 472 283 440 q 283 402 319 389 q 364 372 398 335 q 439 290 439 234 q 439 92 328 62 l 334 -38 l 200 -45 l 224 63 q 114 94 111 239 l 211 258 q 225 216 246 216 q 253 216 260 222 q 268 228 268 235 q 268 259 188 299 q 66 360 41 542 q 39 589 54 626 q 91 715 212 738 l 189 790 l 374 833 l 357 743 q 506 723 571 597 q 597 544 605 474 z"},"?":{"x_min":0,"x_max":490,"ha":490,"o":"m 506 595 q 503 404 370 315 q 314 278 236 264 l 242 166 l 131 175 q 139 206 164 289 q 242 309 242 337 q 242 373 207 373 q 174 373 122 346 l 6 677 q 194 757 328 757 q 508 757 506 595 z m 264 86 q 266 77 266 68 q 266 34 231 11 q 201 -8 171 -8 q 127 -8 113 -2 q 82 13 77 68 q 72 122 131 139 q 156 147 191 146 q 208 145 221 139 q 253 124 264 86 z"},"<":{"x_min":0,"x_max":380,"ha":380,"o":"m 36 333 l 317 143 l 340 250 l 256 308 l 366 337 l 372 570 z"},"'":{"x_min":0,"x_max":202,"ha":202,"o":"m 182 740 l 97 534 l 34 526 l 33 778 z"},"=":{"x_min":0,"x_max":323,"ha":323,"o":"m 294 450 l 289 242 l 21 291 l 62 427 z m 248 187 l 237 114 l 34 122 l 32 206 z"},"a":{"x_min":0,"x_max":529,"ha":529,"o":"m -30 537 l 240 464 q 253 604 305 604 q 315 604 328 597 q 377 569 377 517 q 377 494 368 474 q 247 456 159 425 q -52 351 -58 225 q -68 55 124 55 q 218 55 329 92 l 309 40 l 441 -19 l 532 388 q 547 450 547 517 q 547 776 320 800 q 306 802 287 802 q 197 802 123 759 q 10 693 -30 537 z m 327 166 q 291 152 264 152 q 222 152 222 190 q 222 195 223 202 q 231 261 323 261 q 340 261 354 259 z"},"L":{"x_min":0,"x_max":475,"ha":475,"o":"m 506 21 l 65 0 l -5 762 l 388 818 l 361 157 l 490 189 z"},"3":{"x_min":0,"x_max":516,"ha":516,"o":"m 529 771 l 336 244 q 469 229 469 115 q 469 92 462 64 q 441 -24 340 -24 q 260 -24 158 24 l 210 100 q 248 80 277 80 q 319 80 321 127 q 324 201 222 201 q 210 201 200 199 l 305 391 l 115 331 l -3 709 z"},";":{"x_min":0,"x_max":247,"ha":247,"o":"m 230 459 q 240 439 240 416 q 240 378 217 345 q 194 312 164 303 q 134 294 112 294 q 32 294 28 407 q 25 488 88 511 q 114 521 151 519 q 166 518 179 512 q 211 498 230 459 z m 230 148 q 172 -87 23 -111 q 15 -93 -7 -43 q 43 -3 43 114 q 43 149 39 180 z"},"J":{"x_min":0,"x_max":529,"ha":529,"o":"m 548 399 q 549 384 549 364 q 549 233 506 132 q 437 -30 272 -57 q 239 -63 210 -63 q 56 -63 0 82 q -24 142 -25 227 l 107 272 q 111 139 156 143 q 191 146 191 220 q 191 239 189 256 l 104 726 l 512 773 z"},"V":{"x_min":0,"x_max":598,"ha":598,"o":"m 657 714 l 152 129 l -21 626 l 92 736 l 153 589 l 163 953 z"},"\"":{"x_min":0,"x_max":419,"ha":419,"o":"m 398 745 l 265 574 l 179 595 l 216 800 z m 152 812 l 150 599 l 82 553 l 0 777 z"},"7":{"x_min":0,"x_max":518,"ha":518,"o":"m 542 800 l 400 27 l 315 59 l 348 309 l 137 273 l -20 728 z"},"S":{"x_min":0,"x_max":596,"ha":596,"o":"m 652 506 l 385 419 q 387 425 387 434 q 387 486 330 501 q 321 504 313 504 q 276 504 276 466 q 276 422 318 407 q 371 387 410 345 q 458 292 458 227 q 458 166 439 123 q 395 19 269 19 q 143 19 97 125 q 78 170 76 232 l 192 255 q 209 206 233 206 q 241 206 250 212 q 259 219 259 227 q 259 256 165 303 q 23 373 -5 585 q -8 655 20 704 q 87 824 300 824 q 512 824 603 665 q 641 599 652 506 z"},"}":{"x_min":0,"x_max":327,"ha":327,"o":"m 327 560 q 328 511 292 466 q 257 422 257 400 q 257 352 291 321 q 277 315 267 306 q 242 284 242 255 q 239 154 218 101 q 170 -17 33 -19 l 9 65 q 48 74 76 96 q 143 149 143 262 q 143 293 138 328 q 104 553 9 549 l 80 834 q 151 818 202 786 q 325 708 327 560 z"},"Z":{"x_min":0,"x_max":779,"ha":779,"o":"m 877 693 l 345 255 l 601 197 l 454 12 l -27 323 l 184 548 l 0 574 l 49 716 z"},"x":{"x_min":0,"x_max":734,"ha":734,"o":"m 802 568 l 519 283 l 645 202 l 575 51 l 436 191 l 316 12 l 147 135 l 290 278 l -11 499 l 303 777 l 473 457 l 627 701 z"},")":{"x_min":0,"x_max":469,"ha":469,"o":"m 460 494 q 419 303 116 -64 l 62 0 q 192 127 192 315 q 192 523 14 750 l 334 872 q 467 725 467 563 q 467 528 460 494 z"},"&":{"x_min":0,"x_max":647,"ha":647,"o":"m 656 117 l 563 -19 l 391 53 q 314 -81 194 -81 q 156 -81 116 -65 q 53 -41 53 28 q 53 94 107 182 q 77 188 55 213 q 2 274 -5 423 q -12 572 97 671 q 142 712 208 740 q 283 758 339 758 q 499 758 499 613 q 499 492 400 313 l 531 441 l 633 294 l 436 199 z m 270 307 q 329 383 329 430 q 329 479 253 475 q 186 471 186 432 q 186 386 270 307 z m 312 109 l 196 158 q 169 100 169 67 q 169 37 193 37 q 211 37 241 53 z"},"_":{"x_min":0,"x_max":890,"ha":890,"o":"m 883 -213 l 71 -265 l 44 -34 l 878 -56 z"},"v":{"x_min":0,"x_max":598,"ha":598,"o":"m 657 584 l 152 -1 l -21 496 l 92 606 l 153 459 l 163 823 z"},"O":{"x_min":0,"x_max":612,"ha":612,"o":"m 648 376 q 648 312 608 225 q 566 131 502 71 q 427 0 345 0 q 199 0 99 111 q -15 237 -15 459 q -15 656 147 766 q 214 812 308 837 q 502 837 590 651 q 648 530 648 376 z m 450 308 q 432 323 407 323 q 366 323 336 287 q 312 259 312 225 q 312 192 336 172 q 354 157 379 157 q 420 157 449 192 q 473 220 473 254 q 473 288 450 308 z"},"(":{"x_min":0,"x_max":488,"ha":488,"o":"m 501 638 q 238 353 238 116 q 238 36 266 -15 l 185 -69 q 141 4 108 78 q 29 256 19 406 q 10 557 132 728 q 184 800 257 870 z"},"C":{"x_min":0,"x_max":529,"ha":529,"o":"m 621 712 l 437 309 q 382 352 340 352 q 296 352 281 299 q 277 282 277 267 q 277 231 303 210 q 326 192 361 192 q 408 192 433 220 l 404 45 q 372 39 334 39 q 113 39 42 227 q -13 370 -13 482 q -13 630 80 705 q 193 798 306 798 q 347 798 393 786 q 506 759 621 712 z"},"W":{"x_min":0,"x_max":656,"ha":656,"o":"m 728 468 l 537 29 l 384 213 l 140 -61 l -20 718 l 137 780 l 286 469 l 416 577 l 525 387 l 548 483 z"},"A":{"x_min":0,"x_max":623,"ha":623,"o":"m 684 -37 l 242 -56 l 269 196 l 188 213 l 155 100 l -45 159 l 149 812 l 520 754 z m 297 496 l 277 502 l 224 327 l 280 312 z"},"f":{"x_min":0,"x_max":408,"ha":408,"o":"m 494 491 l 268 394 q 269 489 213 489 q 204 489 193 485 q 161 475 161 438 q 161 393 203 324 l 302 346 l 307 252 l 212 230 l 242 0 q 176 -15 111 -32 q 109 23 105 177 q -4 169 -2 171 q -1 172 -14 293 l 56 303 q -18 466 -18 592 q -18 775 154 794 q 177 797 199 797 q 370 797 449 644 q 482 580 494 491 z"},"Q":{"x_min":0,"x_max":629,"ha":629,"o":"m 654 384 q 654 196 556 53 l 629 -44 l 457 -117 l 406 -16 q 324 -35 292 -35 q 179 -35 94 59 q -15 179 -19 413 q -22 631 139 729 q 205 770 300 784 q 456 784 559 660 q 654 543 654 384 z m 457 282 q 434 301 403 301 q 351 301 314 256 q 284 221 284 178 q 284 135 313 111 q 336 92 367 92 q 419 92 456 136 q 486 172 486 215 q 486 257 457 282 z"},"w":{"x_min":0,"x_max":656,"ha":656,"o":"m 716 639 l 537 59 l 384 243 l 140 -31 l -20 748 l 137 810 l 286 499 l 416 607 l 525 417 l 559 619 z"},"-":{"x_min":0,"x_max":288,"ha":288,"o":"m 288 245 l 45 275 l 35 444 l 235 476 z"},"E":{"x_min":0,"x_max":495,"ha":495,"o":"m 506 752 l 474 309 l 236 381 l 234 317 l 341 316 l 353 189 l 220 193 l 222 131 l 340 147 l 376 0 l 37 -41 l 0 710 z"},"s":{"x_min":0,"x_max":596,"ha":596,"o":"m 652 506 l 385 419 q 387 425 387 434 q 387 486 330 501 q 321 504 313 504 q 276 504 276 466 q 276 422 318 407 q 371 387 410 345 q 458 292 458 227 q 458 166 439 123 q 395 19 269 19 q 143 19 97 125 q 78 170 76 232 l 192 255 q 209 206 233 206 q 241 206 250 212 q 259 219 259 227 q 259 256 165 303 q 23 373 -5 585 q -8 655 20 704 q 87 824 300 824 q 512 824 603 665 q 641 599 652 506 z"},">":{"x_min":0,"x_max":357,"ha":357,"o":"m 0 296 l 210 280 l 142 222 l 154 137 l 357 364 l 84 557 z"},"l":{"x_min":0,"x_max":393,"ha":393,"o":"m 65 0 l -5 762 l 388 818 l 359 28 z"},"8":{"x_min":0,"x_max":538,"ha":538,"o":"m 550 497 q 557 392 473 317 q 438 285 388 263 q 452 218 452 138 q 452 79 418 34 q 385 -11 338 -9 q 188 -4 188 104 q 188 171 239 254 q 195 236 150 236 q -7 236 -1 466 q 5 667 141 751 q 198 786 276 794 q 405 798 477 711 q 541 634 550 497 z m 340 441 q 305 441 274 422 q 239 400 239 367 q 239 340 264 324 q 286 311 315 311 q 350 311 381 330 q 417 352 417 385 q 417 412 391 428 q 369 441 340 441 z m 322 226 q 296 226 274 209 q 252 192 252 167 q 252 146 268 134 q 284 121 306 121 q 332 121 354 138 q 376 155 376 181 q 376 201 360 214 q 344 226 322 226 z"},"\\":{"x_min":0,"x_max":568,"ha":568,"o":"m 580 23 l 460 -59 l 14 597 l 333 824 z"},"e":{"x_min":0,"x_max":529,"ha":529,"o":"m 544 318 l 267 216 q 271 98 316 98 q 350 98 404 167 q 428 141 491 74 q 454 49 422 31 q 345 -13 306 -18 q 277 -22 251 -22 q 103 -22 39 107 q -3 192 -3 319 q -3 351 0 376 q 8 490 37 574 q 105 775 266 789 q 460 806 521 563 q 547 463 544 318 z m 364 348 q 363 376 355 397 q 335 449 282 463 q 275 465 269 465 q 238 465 238 415 q 238 374 257 314 z"},"b":{"x_min":0,"x_max":529,"ha":529,"o":"m 529 434 q 536 403 536 367 q 536 252 481 148 q 423 36 339 19 q 319 15 299 15 q 193 15 109 113 l 112 66 l 12 49 l -15 814 l 235 781 l 176 639 q 243 669 301 669 q 393 669 456 596 q 509 533 529 434 z m 287 233 q 296 258 296 278 q 296 319 263 343 q 234 363 193 363 q 166 363 147 353 l 143 212 q 184 175 221 175 q 265 175 287 233 z"},"%":{"x_min":0,"x_max":724,"ha":724,"o":"m 647 200 q 651 177 651 157 q 651 47 536 16 q 529 14 520 14 q 480 14 445 57 q 410 100 410 157 q 410 170 413 183 q 428 273 539 295 q 546 297 555 297 q 628 297 647 200 z m 541 689 l 321 0 l 19 148 l 373 606 q 307 620 241 636 q 253 622 253 595 q 253 565 233 531 q 210 493 156 493 q 103 493 61 525 q 15 560 15 612 q 15 668 51 717 q 91 770 147 770 q 159 770 172 767 z m 162 632 q 141 632 123 617 q 99 598 99 573 q 99 537 137 537 q 158 537 176 552 q 199 571 199 597 q 199 632 162 632 z m 553 170 q 532 170 514 155 q 490 136 490 110 q 490 75 528 75 q 549 75 567 90 q 590 109 590 134 q 590 170 553 170 z"},"m":{"x_min":0,"x_max":718,"ha":718,"o":"m -15 788 l 16 -31 l 206 10 l 181 244 q 174 282 195 287 q 215 292 230 222 l 266 231 l 264 292 q 264 303 266 310 q 271 329 284 331 q 306 333 311 276 l 349 11 q 449 18 718 40 l 529 550 q 509 604 488 643 q 438 738 390 746 q 308 760 261 500 q 263 515 263 534 q 263 710 151 706 q 111 705 86 624 l 76 739 q 51 752 -15 788 z"},"#":{"x_min":0,"x_max":569,"ha":569,"o":"m 551 380 l 468 370 l 466 290 l 530 312 l 546 231 l 484 207 l 531 83 l 395 96 l 375 194 l 272 186 l 306 87 l 187 57 l 149 203 l 69 188 l 57 287 l 180 304 l 165 388 l 38 372 l 36 473 l 183 480 l 79 744 l 315 742 l 320 541 l 369 537 l 404 753 l 547 718 l 457 498 l 541 502 z m 394 370 l 271 387 l 265 273 l 387 291 z"},",":{"x_min":0,"x_max":239,"ha":239,"o":"m 230 148 q 172 -87 23 -111 q 15 -93 -7 -43 q 43 -3 43 114 q 43 149 39 180 z"},"n":{"x_min":0,"x_max":529,"ha":529,"o":"m -30 791 l 17 -44 l 207 -16 l 179 265 q 177 279 177 293 q 177 347 214 346 q 242 345 260 290 q 272 253 275 209 l 303 -44 l 567 -25 l 503 568 q 488 639 464 689 q 408 810 314 810 q 212 810 77 663 l 80 756 z"},"h":{"x_min":0,"x_max":529,"ha":529,"o":"m -14 800 l -5 0 l 107 7 q 98 166 98 168 q 99 169 98 173 q 98 181 98 188 q 98 270 179 270 q 272 270 268 -17 q 414 12 560 40 q 564 83 564 138 q 564 328 513 454 q 437 641 260 641 q 201 641 132 620 l 163 765 q 115 774 -14 800 z"},"z":{"x_min":0,"x_max":779,"ha":779,"o":"m 726 679 l 292 167 l 491 144 l 454 12 l -33 77 l 160 419 l -43 440 l 63 761 z"},"B":{"x_min":0,"x_max":483,"ha":483,"o":"m 509 613 q 509 445 444 366 q 417 334 379 321 q 436 268 436 178 q 436 35 183 35 q 108 35 34 47 l 12 861 l 209 868 q 296 867 359 842 q 509 781 509 613 z m 298 428 q 297 481 233 481 q 199 481 158 467 l 164 338 q 299 347 298 428 z m 287 223 q 288 293 201 293 q 178 293 156 288 l 154 181 q 193 166 225 166 q 285 166 287 223 z"},"K":{"x_min":0,"x_max":591,"ha":591,"o":"m 640 183 l 516 91 l 396 220 l 453 33 l 25 -17 l -8 754 l 374 816 l 382 433 l 464 584 l 612 496 l 464 331 z"},"R":{"x_min":0,"x_max":581,"ha":581,"o":"m 621 451 q 621 291 478 210 q 418 177 334 161 l 392 37 l 273 0 q 236 74 198 148 q 204 103 224 -19 l 15 -28 l -29 840 l 210 790 q 330 760 416 716 q 621 610 621 451 z m 361 339 q 354 421 217 421 q 191 421 169 419 l 193 256 q 367 267 361 339 z"},"T":{"x_min":0,"x_max":670,"ha":670,"o":"m 712 419 l 454 368 l 473 23 l 292 -21 l 281 368 l 32 371 l -8 778 l 632 838 z"},"P":{"x_min":0,"x_max":444,"ha":444,"o":"m 484 429 q 490 235 337 143 q 274 105 184 91 l 214 8 l 69 -39 q 24 381 -23 800 q 233 784 336 724 q 477 642 484 429 z m 246 268 q 235 339 155 339 q 137 339 121 336 l 149 180 q 248 180 248 252 q 248 259 246 268 z"},"|":{"x_min":0,"x_max":240,"ha":240,"o":"m 240 840 l 146 -61 l 28 -97 l 27 853 z"},"t":{"x_min":0,"x_max":529,"ha":529,"o":"m 106 762 l 131 663 l 6 631 q 13 557 21 484 q 47 495 88 512 q 128 528 154 539 q 151 459 142 244 q 143 170 160 118 q 201 -7 315 -7 q 342 -7 372 0 q 507 31 657 127 q 621 241 522 550 q 412 440 349 440 q 295 440 293 532 q 406 575 407 573 q 396 654 385 734 l 247 685 l 255 800 q 214 790 106 762 z"},"M":{"x_min":0,"x_max":718,"ha":718,"o":"m 744 27 l 313 7 l 292 316 l 241 219 l 179 285 l 200 24 l 24 -17 l -18 809 l 264 544 l 450 762 z"},"g":{"x_min":0,"x_max":613,"ha":613,"o":"m 578 363 q 618 243 618 126 q 618 -109 444 -191 q 385 -219 327 -219 q 191 -219 99 -80 l 268 17 q 321 -72 371 -70 q 450 -66 450 21 q 450 72 426 135 q 412 112 390 93 q 336 49 247 38 q 236 37 226 37 q 128 37 66 143 q 4 249 0 416 q -5 585 55 690 q 110 789 203 800 q 220 802 237 802 q 321 802 351 755 l 334 810 q 363 818 442 836 z m 346 297 q 316 297 286 280 q 231 248 231 201 q 231 177 248 164 q 266 150 291 150 q 321 150 351 168 q 407 200 407 247 q 407 271 390 284 q 372 297 346 297 z"},"j":{"x_min":0,"x_max":529,"ha":529,"o":"m 547 119 q 548 105 548 85 q 548 -46 505 -147 q 436 -309 271 -336 q 238 -342 209 -342 q 55 -342 -1 -197 q -25 -137 -27 -53 l 105 -7 q 110 -140 155 -136 q 190 -134 190 -59 q 190 -40 188 -23 l 103 447 l 511 494 z m 80 646 q 82 724 152 767 q 212 804 298 806 q 403 807 457 756 q 497 718 500 662 q 503 597 438 559 q 382 526 298 526 q 195 526 150 543 q 78 569 80 646 z"},"i":{"x_min":0,"x_max":366,"ha":366,"o":"m 381 43 l 16 -7 l 8 540 l 355 603 z m 0 736 q 0 776 72 803 q 138 827 220 827 q 289 827 326 781 q 356 743 356 692 q 356 651 289 623 q 226 595 147 595 q 78 595 36 645 q 0 686 0 736 z"},"y":{"x_min":0,"x_max":759,"ha":759,"o":"m 812 323 l 379 -259 l 227 -126 l 402 56 l -27 420 l 357 759 l 573 232 l 688 391 z"},"@":{"x_min":0,"x_max":565,"ha":565,"o":"m 409 567 l 361 595 l 356 571 q 297 597 245 597 q 139 597 132 473 q 125 347 305 301 q 380 283 487 281 q 584 456 584 584 q 584 753 393 762 q 363 764 336 764 q 119 764 45 657 q -10 576 -9 367 q -9 206 95 115 q 193 31 349 31 q 398 31 450 40 q 533 55 579 88 l 539 160 q 414 177 324 215 q 109 304 109 480 q 109 520 121 563 q 157 703 248 703 q 323 703 404 616 q 480 534 480 473 q 480 430 429 430 q 395 430 395 484 q 395 520 409 567 z m 309 442 l 311 386 q 288 378 270 378 q 238 378 241 406 q 243 443 291 443 q 300 443 309 442 z"},".":{"x_min":0,"x_max":247,"ha":247,"o":"m 230 168 q 240 148 240 125 q 240 87 217 54 q 194 21 164 12 q 134 3 112 3 q 32 3 28 116 q 25 197 88 221 q 114 230 151 228 q 166 227 179 221 q 211 207 230 168 z"},"p":{"x_min":0,"x_max":444,"ha":444,"o":"m 484 399 q 490 205 337 113 q 274 75 184 61 l 271 -167 l 89 -230 q 34 270 -23 770 q 233 754 336 694 q 477 612 484 399 z m 246 238 q 235 309 155 309 q 137 309 121 306 l 149 150 q 248 150 248 222 q 248 229 246 238 z"},"X":{"x_min":0,"x_max":734,"ha":734,"o":"m 782 602 l 505 301 l 625 236 l 556 85 l 377 233 l 301 88 l 128 169 l 270 312 l -31 533 l 284 812 l 497 518 l 608 736 z"},"*":{"x_min":0,"x_max":402,"ha":402,"o":"m 402 622 l 274 598 l 330 556 l 263 481 l 182 566 l 192 466 l 90 476 l 130 586 l 21 561 l 42 674 l 144 659 l 125 758 l 233 788 l 224 665 l 365 737 z"},"Y":{"x_min":0,"x_max":759,"ha":759,"o":"m 812 403 l 444 -92 l 269 -8 l 402 136 l -27 500 l 350 813 l 573 312 l 688 471 z"},"c":{"x_min":0,"x_max":574,"ha":574,"o":"m 631 682 l 447 279 q 392 322 350 322 q 306 322 291 269 q 287 252 287 237 q 287 201 313 180 q 336 162 371 162 q 418 162 443 190 l 414 15 q 382 9 344 9 q 123 9 52 197 q -3 340 -3 452 q -3 600 90 675 q 203 768 316 768 q 357 768 403 756 q 516 729 631 682 z"},"!":{"x_min":0,"x_max":397,"ha":397,"o":"m 381 742 l 213 235 l 61 281 l 132 742 z m 205 113 q 208 103 208 94 q 208 57 174 26 q 143 -1 115 -1 q 23 -1 14 93 q 7 172 133 183 q 151 176 164 166 q 197 142 205 113 z"},"/":{"x_min":0,"x_max":748,"ha":748,"o":"m 776 558 l 67 43 l -19 151 l 478 787 z"},"[":{"x_min":0,"x_max":397,"ha":397,"o":"m 397 542 l 227 524 l 160 0 l 228 30 l 265 -56 l 68 -115 l 21 822 l 366 874 z"},"6":{"x_min":0,"x_max":445,"ha":445,"o":"m 454 196 q 460 112 357 69 q 314 51 253 43 q 244 42 231 42 q 147 42 89 84 q -5 152 1 312 q 10 554 226 681 q 317 733 441 758 l 430 429 q 294 434 294 328 q 294 309 299 291 q 320 296 343 296 q 446 296 454 196 z m 341 172 q 336 207 281 207 q 254 207 230 193 q 201 177 204 152 q 209 117 264 117 q 290 117 315 131 q 344 147 341 172 z"},"r":{"x_min":0,"x_max":529,"ha":529,"o":"m -6 800 l 12 -16 l 352 34 q 340 179 305 570 q 304 637 365 640 q 416 642 416 564 q 416 550 414 539 l 554 581 q 555 640 538 682 q 498 782 373 782 q 356 782 338 780 q 281 774 242 718 l 243 792 z"},"2":{"x_min":0,"x_max":561,"ha":561,"o":"m 566 418 q 566 257 419 151 q 357 107 271 78 l 418 65 l 397 -51 l 114 -7 l 137 170 q 212 192 265 221 q 391 288 383 372 q 378 431 332 431 q 281 431 200 368 l -19 603 l 342 802 q 444 802 504 701 q 566 597 566 418 z"},"{":{"x_min":0,"x_max":327,"ha":327,"o":"m 327 65 l 303 -19 q 166 -17 119 101 q 98 154 95 255 q 93 299 46 321 q 80 352 80 400 q 80 422 44 466 q 8 511 9 560 q 11 708 134 786 q 185 818 257 834 l 327 549 q 232 553 198 328 q 193 293 193 262 q 193 149 260 96 q 288 74 327 65 z"},"9":{"x_min":0,"x_max":495,"ha":495,"o":"m 497 434 q 499 411 499 389 q 499 194 381 98 q 331 58 263 40 l 248 120 q 359 136 359 260 q 359 276 357 290 q 295 245 204 245 q 120 245 66 292 q 1 349 -4 463 q -12 627 135 713 q 196 749 284 766 q 340 765 382 733 q 483 655 497 434 z m 325 443 q 307 443 288 436 q 234 415 234 372 q 234 351 251 340 q 268 328 291 328 q 309 328 327 335 q 382 356 382 398 q 382 420 364 432 q 347 443 325 443 z"}," ":{"x_min":0,"x_max":266,"ha":266,"o":""},"I":{"x_min":0,"x_max":366,"ha":366,"o":"m 381 43 l 16 -7 l 0 748 l 346 810 z"},"H":{"x_min":0,"x_max":558,"ha":558,"o":"m 588 137 l 452 119 l 425 291 l 361 271 l 410 61 l 7 -16 l 11 800 l 362 752 l 340 452 l 417 456 l 398 664 l 529 701 z"},"4":{"x_min":0,"x_max":425,"ha":425,"o":"m 435 299 l 337 283 l 368 81 l 263 27 l 260 304 l 9 260 l -6 762 l 251 700 l 194 456 l 243 453 l 265 561 l 384 562 l 361 373 l 430 376 z"},"~":{"x_min":0,"x_max":444,"ha":444,"o":"m 373 695 q 340 773 282 773 q 238 773 187 723 q 142 680 114 680 q 66 680 69 787 l 7 753 q 87 557 170 557 q 201 557 229 589 q 286 654 323 654 q 352 654 363 617 z"},"D":{"x_min":0,"x_max":481,"ha":481,"o":"m 518 413 q 486 177 349 77 q 259 11 142 11 q 116 11 96 15 l -35 39 l 13 793 l 104 806 q 133 810 171 810 q 303 810 392 758 q 524 679 524 494 q 524 456 518 413 z m 261 224 q 276 247 276 267 q 276 332 139 349 l 113 187 q 141 164 173 164 q 223 164 261 224 z"},"^":{"x_min":0,"x_max":381,"ha":381,"o":"m 374 630 l 276 611 l 255 659 l 178 543 l 21 621 l 211 851 z"},"0":{"x_min":0,"x_max":612,"ha":612,"o":"m 648 376 q 648 312 608 225 q 566 131 502 71 q 427 0 345 0 q 199 0 99 111 q -15 237 -15 459 q -15 656 147 766 q 214 812 308 837 q 502 837 590 651 q 648 530 648 376 z m 450 308 q 432 323 407 323 q 366 323 336 287 q 312 259 312 225 q 312 192 336 172 q 354 157 379 157 q 420 157 449 192 q 473 220 473 254 q 473 288 450 308 z"},"F":{"x_min":0,"x_max":461,"ha":461,"o":"m 490 816 l 406 352 l 171 368 l 176 321 l 273 328 l 276 184 l 157 183 l 189 39 l 48 0 l -23 744 z"},"`":{"x_min":0,"x_max":241,"ha":241,"o":"m 228 527 l 109 511 l 14 756 l 187 800 z"},"k":{"x_min":0,"x_max":591,"ha":591,"o":"m 640 183 l 516 91 l 396 220 l 453 33 l 25 -17 l -8 754 l 374 816 l 382 433 l 464 584 l 612 496 l 464 331 z"},"u":{"x_min":0,"x_max":620,"ha":620,"o":"m 648 340 q 648 210 638 159 q 620 57 555 4 q 475 -61 316 -61 q 100 -61 26 182 q -5 284 -5 425 l -7 732 l 360 787 q 333 523 333 348 q 333 146 373 146 q 438 146 438 478 q 438 532 436 578 l 645 612 q 648 501 648 340 z"},"]":{"x_min":0,"x_max":399,"ha":399,"o":"m 381 873 l 311 -72 l 109 -93 l 105 0 l 197 12 l 224 600 l 38 508 l 22 849 z"},"U":{"x_min":0,"x_max":620,"ha":620,"o":"m 648 340 q 648 210 638 159 q 620 57 555 4 q 475 -61 316 -61 q 100 -61 26 182 q -5 284 -5 425 l -7 732 l 453 800 q 404 738 373 629 q 344 528 344 441 q 344 337 386 337 q 442 337 442 479 q 442 528 436 578 l 645 612 q 648 501 648 340 z"},"o":{"x_min":0,"x_max":612,"ha":612,"o":"m 648 376 q 648 312 608 225 q 566 131 502 71 q 427 0 345 0 q 199 0 99 111 q -15 237 -15 459 q -15 656 147 766 q 214 812 308 837 q 502 837 590 651 q 648 530 648 376 z m 450 308 q 432 323 407 323 q 366 323 336 287 q 312 259 312 225 q 312 192 336 172 q 354 157 379 157 q 420 157 449 192 q 473 220 473 254 q 473 288 450 308 z"},"N":{"x_min":0,"x_max":531,"ha":531,"o":"m 564 598 l 480 -40 l 214 119 l 210 0 l 29 -27 l -15 788 l 340 403 l 425 673 z"},"+":{"x_min":0,"x_max":457,"ha":457,"o":"m 434 238 l 286 254 l 297 129 l 203 119 l 196 264 l 57 232 l 28 352 l 134 365 l 115 560 l 361 567 l 280 360 l 424 358 z"},"G":{"x_min":0,"x_max":541,"ha":541,"o":"m 576 800 l 518 405 l 418 423 q 365 434 312 434 q 141 434 133 312 q 127 203 240 160 q 288 143 356 140 l 368 215 l 232 187 l 204 375 l 514 345 l 528 0 l 344 -9 q 232 -9 152 36 q -21 135 -21 412 q -21 643 125 745 q 232 818 404 818 q 494 818 576 800 z"},"q":{"x_min":0,"x_max":444,"ha":444,"o":"m -23 399 q -29 205 124 113 q 187 75 277 61 l 190 -167 l 372 -230 q 427 270 484 770 q 228 754 125 694 q -16 612 -23 399 z m 214 238 q 226 309 306 309 q 324 309 340 306 l 312 150 q 213 150 213 222 q 213 229 214 238 z"},"d":{"x_min":0,"x_max":529,"ha":529,"o":"m -15 434 q -21 403 -21 367 q -21 252 33 148 q 92 36 175 19 q 195 15 215 15 q 321 15 405 113 l 402 66 l 502 49 l 529 814 l 279 781 l 338 639 q 271 669 213 669 q 121 669 58 596 q 5 533 -15 434 z m 227 233 q 218 258 218 278 q 218 319 251 343 q 281 363 321 363 q 348 363 367 353 l 371 212 q 330 175 293 175 q 249 175 227 233 z"},"1":{"x_min":0,"x_max":529,"ha":529,"o":"m 546 685 l 276 0 l 167 31 l 177 571 l 51 521 l -11 599 l 202 783 z"},"5":{"x_min":0,"x_max":469,"ha":469,"o":"m 491 753 l 464 388 l 244 408 l 259 332 q 296 333 321 319 q 382 286 374 186 q 361 15 180 15 q 135 15 94 26 l 114 140 q 143 131 171 131 q 245 131 245 196 q 245 271 95 271 q 68 271 44 269 l -24 691 z"}}}
